<?xml version="1.0" encoding="UTF-8" standalone="no"?>
<svg width="36px" height="36px" viewBox="0 0 36 36" version="1.1" xmlns="http://www.w3.org/2000/svg" xmlns:xlink="http://www.w3.org/1999/xlink" xmlns:sketch="http://www.bohemiancoding.com/sketch/ns">
    <!-- Generator: Sketch 3.5.1 (25234) - http://www.bohemiancoding.com/sketch -->
    <title>Group</title>
    <desc>Created with Sketch.</desc>
    <defs></defs>
    <g id="Page-1" stroke="none" stroke-width="1" fill="none" fill-rule="evenodd" sketch:type="MSPage">
        <g id="Download-2.0" sketch:type="MSArtboardGroup" transform="translate(-122.000000, -1183.000000)" fill="#A1B963">
            <g id="Rectangle-21-+-Group-+-Rectangle-22-+-NEW" sketch:type="MSLayerGroup" transform="translate(-90.000000, 941.000000)">
                <g id="Group" transform="translate(90.000000, 59.000000)" sketch:type="MSShapeGroup">
                    <g transform="translate(122.000000, 183.000000)">
                        <path d="M1.49885281,16.5 L34.4736146,16.5 L34.4736146,9 L1.49885281,9 L1.49885281,16.5 Z M35.223041,18 L0.749426404,18 C0.335743029,18 0,17.664 0,17.25 L0,8.25 C0,7.836 0.335743029,7.5 0.749426404,7.5 L35.223041,7.5 C35.6367243,7.5 35.9724674,7.836 35.9724674,8.25 L35.9724674,17.25 C35.9724674,17.664 35.6367243,18 35.223041,18 L35.223041,18 Z" id="Fill-5690"></path>
                        <path d="M35.223041,9 C35.0536706,9 34.8828014,8.943 34.7434081,8.826 L25.9586318,1.5 L10.0138356,1.5 L1.2290593,8.826 C0.911302507,9.09 0.439163872,9.0495 0.173866926,8.73 C-0.0899311684,8.412 -0.0479632898,7.938 0.269793505,7.674 L9.26291035,0.174 C9.39630825,0.0615 9.56717747,0 9.74254325,0 L26.2299241,0 C26.4052899,0 26.5761591,0.0615 26.709557,0.174 L35.7026739,7.674 C36.0204307,7.938 36.0623985,8.412 35.7986004,8.73 C35.650214,8.9085 35.4373769,9 35.223041,9" id="Fill-5691"></path>
                        <path d="M20.9839393,14.25 C20.1565726,14.25 19.4850865,13.5765 19.4850865,12.75 C19.4850865,11.9235 20.1565726,11.25 20.9839393,11.25 C21.811306,11.25 22.4827921,11.9235 22.4827921,12.75 C22.4827921,13.5765 21.811306,14.25 20.9839393,14.25" id="Fill-5692"></path>
                        <path d="M25.4804977,14.25 C24.653131,14.25 23.9816449,13.5765 23.9816449,12.75 C23.9816449,11.9235 24.653131,11.25 25.4804977,11.25 C26.3078645,11.25 26.9793505,11.9235 26.9793505,12.75 C26.9793505,13.5765 26.3078645,14.25 25.4804977,14.25" id="Fill-5693"></path>
                        <path d="M29.9770561,14.25 C29.1496894,14.25 28.4782033,13.5765 28.4782033,12.75 C28.4782033,11.9235 29.1496894,11.25 29.9770561,11.25 C30.8044229,11.25 31.475909,11.9235 31.475909,12.75 C31.475909,13.5765 30.8044229,14.25 29.9770561,14.25" id="Fill-5694"></path>
                        <path d="M5.24598483,12 C4.8338003,12 4.49655842,12.336 4.49655842,12.75 C4.49655842,13.164 4.8338003,13.5 5.24598483,13.5 C5.65816935,13.5 5.99541123,13.164 5.99541123,12.75 C5.99541123,12.336 5.65816935,12 5.24598483,12 M5.24598483,15 C4.00643355,15 2.99770561,13.9905 2.99770561,12.75 C2.99770561,11.5095 4.00643355,10.5 5.24598483,10.5 C6.4855361,10.5 7.49426404,11.5095 7.49426404,12.75 C7.49426404,13.9905 6.4855361,15 5.24598483,15" id="Fill-5695"></path>
                        <path d="M35.223041,27 L0.749426404,27 C0.335743029,27 0,26.664 0,26.25 L0,17.25 C0,16.836 0.335743029,16.5 0.749426404,16.5 C1.16310978,16.5 1.49885281,16.836 1.49885281,17.25 L1.49885281,25.5 L34.4736146,25.5 L34.4736146,17.25 C34.4736146,16.836 34.8093576,16.5 35.223041,16.5 C35.6367243,16.5 35.9724674,16.836 35.9724674,17.25 L35.9724674,26.25 C35.9724674,26.664 35.6367243,27 35.223041,27" id="Fill-5696"></path>
                        <path d="M20.9839393,23.25 C20.1565726,23.25 19.4850865,22.5765 19.4850865,21.75 C19.4850865,20.9235 20.1565726,20.25 20.9839393,20.25 C21.811306,20.25 22.4827921,20.9235 22.4827921,21.75 C22.4827921,22.5765 21.811306,23.25 20.9839393,23.25" id="Fill-5697"></path>
                        <path d="M25.4804977,23.25 C24.653131,23.25 23.9816449,22.5765 23.9816449,21.75 C23.9816449,20.9235 24.653131,20.25 25.4804977,20.25 C26.3078645,20.25 26.9793505,20.9235 26.9793505,21.75 C26.9793505,22.5765 26.3078645,23.25 25.4804977,23.25" id="Fill-5698"></path>
                        <path d="M29.9770561,23.25 C29.1496894,23.25 28.4782033,22.5765 28.4782033,21.75 C28.4782033,20.9235 29.1496894,20.25 29.9770561,20.25 C30.8044229,20.25 31.475909,20.9235 31.475909,21.75 C31.475909,22.5765 30.8044229,23.25 29.9770561,23.25" id="Fill-5699"></path>
                        <path d="M5.24598483,21 C4.8338003,21 4.49655842,21.336 4.49655842,21.75 C4.49655842,22.164 4.8338003,22.5 5.24598483,22.5 C5.65816935,22.5 5.99541123,22.164 5.99541123,21.75 C5.99541123,21.336 5.65816935,21 5.24598483,21 M5.24598483,24 C4.00643355,24 2.99770561,22.9905 2.99770561,21.75 C2.99770561,20.5095 4.00643355,19.5 5.24598483,19.5 C6.4855361,19.5 7.49426404,20.5095 7.49426404,21.75 C7.49426404,22.9905 6.4855361,24 5.24598483,24" id="Fill-5700"></path>
                        <path d="M32.2253354,36 L3.74713202,36 C1.680214,36 0,34.317 0,32.25 L0,26.25 C0,25.836 0.335743029,25.5 0.749426404,25.5 C1.16310978,25.5 1.49885281,25.836 1.49885281,26.25 L1.49885281,32.25 C1.49885281,33.4905 2.50758075,34.5 3.74713202,34.5 L32.2253354,34.5 C33.4648866,34.5 34.4736146,33.4905 34.4736146,32.25 L34.4736146,26.25 C34.4736146,25.836 34.8093576,25.5 35.223041,25.5 C35.6367243,25.5 35.9724674,25.836 35.9724674,26.25 L35.9724674,32.25 C35.9724674,34.317 34.2922534,36 32.2253354,36" id="Fill-5701"></path>
                        <path d="M20.9839393,32.25 C20.1565726,32.25 19.4850865,31.5765 19.4850865,30.75 C19.4850865,29.9235 20.1565726,29.25 20.9839393,29.25 C21.811306,29.25 22.4827921,29.9235 22.4827921,30.75 C22.4827921,31.5765 21.811306,32.25 20.9839393,32.25" id="Fill-5702"></path>
                        <path d="M25.4804977,32.25 C24.653131,32.25 23.9816449,31.5765 23.9816449,30.75 C23.9816449,29.9235 24.653131,29.25 25.4804977,29.25 C26.3078645,29.25 26.9793505,29.9235 26.9793505,30.75 C26.9793505,31.5765 26.3078645,32.25 25.4804977,32.25" id="Fill-5703"></path>
                        <path d="M29.9770561,32.25 C29.1496894,32.25 28.4782033,31.5765 28.4782033,30.75 C28.4782033,29.9235 29.1496894,29.25 29.9770561,29.25 C30.8044229,29.25 31.475909,29.9235 31.475909,30.75 C31.475909,31.5765 30.8044229,32.25 29.9770561,32.25" id="Fill-5704"></path>
                        <path d="M5.24598483,30 C4.8338003,30 4.49655842,30.336 4.49655842,30.75 C4.49655842,31.164 4.8338003,31.5 5.24598483,31.5 C5.65816935,31.5 5.99541123,31.164 5.99541123,30.75 C5.99541123,30.336 5.65816935,30 5.24598483,30 M5.24598483,33 C4.00643355,33 2.99770561,31.9905 2.99770561,30.75 C2.99770561,29.5095 4.00643355,28.5 5.24598483,28.5 C6.4855361,28.5 7.49426404,29.5095 7.49426404,30.75 C7.49426404,31.9905 6.4855361,33 5.24598483,33" id="Fill-5705"></path>
                    </g>
                </g>
            </g>
        </g>
    </g>
</svg>