<?xml version="1.0" encoding="UTF-8" standalone="no"?>
<svg width="38px" height="35px" viewBox="0 0 38 35" version="1.1" xmlns="http://www.w3.org/2000/svg" xmlns:xlink="http://www.w3.org/1999/xlink" xmlns:sketch="http://www.bohemiancoding.com/sketch/ns">
    <!-- Generator: Sketch 3.5.1 (25234) - http://www.bohemiancoding.com/sketch -->
    <title>Group</title>
    <desc>Created with Sketch.</desc>
    <defs></defs>
    <g id="Page-1" stroke="none" stroke-width="1" fill="none" fill-rule="evenodd" sketch:type="MSPage">
        <g id="Download-2.0" sketch:type="MSArtboardGroup" transform="translate(-601.000000, -1183.000000)" fill="#F32840">
            <g id="Rectangle-21-+-Group-+-Rectangle-22-+-NEW" sketch:type="MSLayerGroup" transform="translate(-90.000000, 941.000000)">
                <g id="Group" transform="translate(90.000000, 59.000000)" sketch:type="MSShapeGroup">
                    <g transform="translate(601.000000, 183.000000)">
                        <path d="M11.4422364,23.9554091 C12.0619636,23.9554091 12.6446,24.1965 13.0819636,24.6338636 L19.6377818,31.1912273 C21.0982364,32.6516818 23.0377818,33.4553182 25.1025091,33.4553182 C27.1656909,33.4553182 29.1067818,32.6516818 30.5656909,31.1912273 C37.1941455,24.5643182 37.1941455,13.7785909 30.5656909,7.14859091 C27.3557818,3.93868182 23.0856909,2.17068182 18.5451455,2.17068182 C14.0046,2.17068182 9.73450909,3.93868182 6.5246,7.14859091 C-0.103854545,13.7785909 -0.103854545,24.5643182 6.5246,31.1912273 C7.39932727,32.0675 8.92778182,32.0675 9.80250909,31.1912273 C10.7066,30.2871364 10.7066,28.8174091 9.80250909,27.9133182 C8.89996364,27.0107727 8.89996364,25.5395 9.80250909,24.6338636 C10.2398727,24.1965 10.8225091,23.9554091 11.4422364,23.9554091 M25.1025091,35.0007727 C22.6251455,35.0007727 20.2961455,34.0348636 18.5451455,32.2838636 L11.9877818,25.7265 C11.6956909,25.4344091 11.1872364,25.4344091 10.8966909,25.7265 C10.5953273,26.0294091 10.5953273,26.5193182 10.8951455,26.8206818 C12.4019636,28.3275 12.4019636,30.7785909 10.8951455,32.2838636 C9.43778182,33.7427727 6.89087273,33.7427727 5.43196364,32.2838636 C-1.79921818,25.0542273 -1.79921818,13.2886818 5.43196364,6.05595455 C8.93396364,2.55395455 13.5919636,0.625227273 18.5451455,0.625227273 C23.4983273,0.625227273 28.1563273,2.55395455 31.6598727,6.05595455 C38.8895091,13.2886818 38.8895091,25.0542273 31.6598727,32.2838636 C29.9073273,34.0348636 27.5783273,35.0007727 25.1025091,35.0007727" id="Fill-638"></path>
                        <path d="M25.1023545,9.97615455 C24.6897182,9.97615455 24.3018091,10.1368818 24.0097182,10.4274273 C23.7176273,10.7195182 23.5569,11.1089727 23.5569,11.5216091 C23.5569,11.9342455 23.7176273,12.3221545 24.0081727,12.6127 C24.5939,13.1984273 25.6108091,13.1968818 26.1949909,12.6142455 C26.7977182,12.0115182 26.7977182,11.0317 26.1949909,10.4274273 C25.9029,10.1368818 25.5149909,9.97615455 25.1023545,9.97615455 M25.1023545,14.6125182 C24.2770818,14.6125182 23.4997182,14.2910636 22.9170818,13.7068818 C22.3329,13.1242455 22.0114455,12.3468818 22.0114455,11.5216091 C22.0114455,10.6947909 22.3329,9.91897273 22.9170818,9.33479091 C24.0839,8.16951818 26.1208091,8.16951818 27.2876273,9.33479091 C28.4930818,10.5417909 28.4930818,12.5029727 27.2876273,13.7068818 C26.7049909,14.2910636 25.9276273,14.6125182 25.1023545,14.6125182" id="Fill-639"></path>
                        <path d="M29.3636364,18.3976455 C29.1580909,18.3976455 28.9633636,18.4780091 28.8180909,18.6232818 C28.5167273,18.9261909 28.5167273,19.4161 28.8180909,19.7174636 C29.1086364,20.0080091 29.6186364,20.0095545 29.9091818,19.7174636 C30.2105455,19.4161 30.2105455,18.9261909 29.9091818,18.6232818 C29.7639091,18.4780091 29.5691818,18.3976455 29.3636364,18.3976455 M29.3636364,21.4885545 C28.7454545,21.4885545 28.1628182,21.2474636 27.7254545,20.8116455 C26.8213636,19.9075545 26.8213636,18.4362818 27.7239091,17.5306455 C28.6001818,16.6559182 30.1270909,16.6559182 31.0018182,17.5306455 C31.9059091,18.4362818 31.9059091,19.9075545 31.0018182,20.8101 C30.5644545,21.2474636 29.9818182,21.4885545 29.3636364,21.4885545" id="Fill-640"></path>
                        <path d="M25.1015818,24.5032727 C24.4818545,24.5032727 23.9007636,24.7443636 23.4634,25.1801818 C23.0260364,25.6190909 22.7849455,26.2017273 22.7849455,26.8214545 C22.7849455,27.4396364 23.0244909,28.0222727 23.4634,28.4596364 C24.3365818,29.3359091 25.8665818,29.3343636 26.7413091,28.4596364 C27.1786727,28.0222727 27.4197636,27.4396364 27.4197636,26.8214545 C27.4197636,26.2017273 27.1786727,25.6190909 26.7413091,25.1801818 C26.3039455,24.7443636 25.7213091,24.5032727 25.1015818,24.5032727 M25.1015818,30.6835455 C24.0692182,30.6835455 23.0986727,30.2817273 22.3692182,29.5522727 C21.6413091,28.8228182 21.2394909,27.8522727 21.2394909,26.8214545 C21.2394909,25.7890909 21.6413091,24.8185455 22.3707636,24.0875455 C23.8281273,22.6301818 26.3750364,22.6301818 27.8339455,24.0875455 C28.5634,24.8185455 28.9652182,25.7890909 28.9652182,26.8214545 C28.9652182,27.8522727 28.5634,28.8228182 27.8339455,29.5522727 C27.1044909,30.2817273 26.1339455,30.6835455 25.1015818,30.6835455" id="Fill-641"></path>
                        <path d="M15.8129364,8.33565455 C15.4003,8.33565455 15.0123909,8.49638182 14.7203,8.78847273 C14.4282091,9.08056364 14.2674818,9.46847273 14.2674818,9.88110909 C14.2674818,10.2937455 14.4266636,10.6816545 14.7203,10.9752909 C15.3029364,11.5563818 16.3229364,11.5563818 16.9055727,10.9752909 C17.1976636,10.6832 17.3583909,10.2937455 17.3583909,9.88110909 C17.3583909,9.46847273 17.1976636,9.08056364 16.9055727,8.79001818 C16.6134818,8.49638182 16.2255727,8.33565455 15.8129364,8.33565455 M15.8129364,12.9720182 C14.9876636,12.9720182 14.2103,12.6505636 13.6276636,12.0679273 C13.0434818,11.4822 12.7220273,10.7048364 12.7220273,9.87956364 C12.7220273,9.05429091 13.0434818,8.27847273 13.6276636,7.69583636 C14.7929364,6.52901818 16.8298455,6.52747273 17.9982091,7.69738182 C18.5823909,8.27847273 18.9038455,9.05583636 18.9038455,9.88110909 C18.9038455,10.7063818 18.5823909,11.4837455 17.9982091,12.0679273 C17.4140273,12.6505636 16.6382091,12.9720182 15.8129364,12.9720182" id="Fill-642"></path>
                    </g>
                </g>
            </g>
        </g>
    </g>
</svg>