<svg id="Layer_1" data-name="Layer 1" xmlns="http://www.w3.org/2000/svg" viewBox="0 0 27.17 27"><defs><style>.cls-1{fill:#4a4a4a;}</style></defs><title>icon-136-document-edit</title><g id="Page-1"><g id="icon-136-document-edit"><path id="document-edit" class="cls-1" d="M26.44,12.15L15.16,23.45h0l-2.61-2.61L23.84,9.55l2.6,2.6h0Zm0.71-.71,1.73-1.73a1,1,0,0,0,0-1.42L27.69,7.12a1,1,0,0,0-1.42,0L24.55,8.84l2.6,2.6h0ZM11.9,21.61l-0.64,3.11,3.13-.62-2.5-2.5h0ZM22,10h0L16,3H5A2,2,0,0,0,3,5V28a2,2,0,0,0,2,2H20a2,2,0,0,0,2-2V18l7.58-7.58a2,2,0,0,0,0-2.83L28.41,6.41a2,2,0,0,0-2.83,0L22,10h0Zm-1,9v9a1,1,0,0,1-1,1H5a1,1,0,0,1-1-1V5A1,1,0,0,1,5,4H15V9a2,2,0,0,0,2,2h4L11,21l-1,5,5-1,6-6h0ZM16,4.5V9a1,1,0,0,0,1,1h3.7L16,4.5h0Z" transform="translate(-3 -3)"/></g></g></svg>