<?xml version="1.0" encoding="UTF-8" standalone="no"?>
<svg width="16px" height="16px" viewBox="0 0 16 16" version="1.1" xmlns="http://www.w3.org/2000/svg" xmlns:xlink="http://www.w3.org/1999/xlink" xmlns:sketch="http://www.bohemiancoding.com/sketch/ns">
    <!-- Generator: Sketch 3.5.1 (25234) - http://www.bohemiancoding.com/sketch -->
    <title>Fill 4374 + Fill 4375</title>
    <desc>Created with Sketch.</desc>
    <defs></defs>
    <g id="Page-1" stroke="none" stroke-width="1" fill="none" fill-rule="evenodd" sketch:type="MSPage">
        <g id="Download-2.0" sketch:type="MSArtboardGroup" transform="translate(-728.000000, -1074.000000)" fill="#8D8D8D">
            <g id="Rectangle-21-+-Group-+-Rectangle-22-+-NEW" sketch:type="MSLayerGroup" transform="translate(-90.000000, 941.000000)">
                <g id="Group" transform="translate(90.000000, 59.000000)" sketch:type="MSShapeGroup">
                    <g id="Search" transform="translate(241.000000, 62.000000)">
                        <g id="Fill-4374-+-Fill-4375" transform="translate(495.000000, 20.000000) rotate(-270.000000) translate(-495.000000, -20.000000) translate(487.000000, 12.000000)">
                            <path d="M5.66666667,0.666666667 C2.90933333,0.666666667 0.666666667,2.90933333 0.666666667,5.66666667 C0.666666667,8.424 2.90933333,10.6666667 5.66666667,10.6666667 C8.424,10.6666667 10.6666667,8.424 10.6666667,5.66666667 C10.6666667,2.90933333 8.424,0.666666667 5.66666667,0.666666667 M5.66666667,11.3333333 C2.542,11.3333333 -3.55271368e-15,8.79133333 -3.55271368e-15,5.66666667 C-3.55271368e-15,2.542 2.542,-1.26121336e-13 5.66666667,-1.26121336e-13 C8.79133333,-1.26121336e-13 11.3333333,2.542 11.3333333,5.66666667 C11.3333333,8.79133333 8.79133333,11.3333333 5.66666667,11.3333333" id="Fill-4374"></path>
                            <path d="M15.6666667,16 C15.5813333,16 15.496,15.9673333 15.4313333,15.9026667 L9.202,9.67333333 C9.07133333,9.54266667 9.07133333,9.332 9.202,9.202 C9.332,9.07133333 9.54333333,9.07133333 9.67333333,9.202 L15.902,15.4306667 C16.0326667,15.5613333 16.0326667,15.772 15.902,15.9026667 C15.8373333,15.9673333 15.752,16 15.6666667,16" id="Fill-4375"></path>
                        </g>
                    </g>
                </g>
            </g>
        </g>
    </g>
</svg>