<svg id="Layer_1" data-name="Layer 1" xmlns="http://www.w3.org/2000/svg" viewBox="0 0 29.66 23.9"><defs><style>.cls-1{fill:#5ba4e5;}</style></defs><title>megaphone</title><path class="cls-1" d="M28.08,18.12V26a0.92,0.92,0,0,1-1,1A3,3,0,0,1,26,26.13V4.94A3,3,0,0,1,27.08,4a0.89,0.89,0,0,1,1,1v8.1a2.65,2.65,0,0,1,2.61,2.49A2.65,2.65,0,0,1,28.08,18.12ZM12,20c0.06,0,0-9,0-9A18.08,18.08,0,0,0,25.08,5.94V25.12A18.08,18.08,0,0,0,12,20ZM8,28L6,20H4a13.87,13.87,0,0,1-.86-3H2a1,1,0,0,1-1-1V15a1,1,0,0,1,1-1H3.16A13.92,13.92,0,0,1,4,11h7v9H9l0.25,1h1l0.5,2h-1L11,28H8Z" transform="translate(-1.03 -4.05)"/></svg>