<svg id="Layer_1" data-name="Layer 1" xmlns="http://www.w3.org/2000/svg" viewBox="0 0 24 24"><defs><style>.cls-1{fill:#a1b963;}</style></defs><title>target-arrow</title><path class="cls-1" d="M7-9.17l-1,1v3.23H5V-7.17L3.71-5.88,3-6.59,4.36-7.94H2v-1H5.36l1-1H4v-1H7.36l5.32-5.32L12-16.94l3-1-1,3-0.61-.61L8-10.17v3.23H7V-9.17H7ZM5.78-11.94a11,11,0,0,1-1.78-6,11,11,0,0,1,11-11,11,11,0,0,1,11,11,11,11,0,0,1-11,11A11,11,0,0,1,9-8.72V-9.8l0.09-.08A10,10,0,0,0,15-7.94a10,10,0,0,0,10-10,10,10,0,0,0-10-10,10,10,0,0,0-10,10A10,10,0,0,0,7-12l-0.05.05H5.78ZM12-17.8s0-.09,0-0.14a3,3,0,0,1,3-3,3,3,0,0,1,3,3,3,3,0,0,1-3,3H14.86l0.28-1h0a2,2,0,0,0,1.84-2,2,2,0,0,0-2-2,2,2,0,0,0-2,1.86ZM9.11-14.15A7,7,0,0,1,8-17.94a7,7,0,0,1,7-7,7,7,0,0,1,7,7,7,7,0,0,1-7,7A7,7,0,0,1,11.24-12L12-12.76a6,6,0,0,0,3,.82,6,6,0,0,0,6-6,6,6,0,0,0-6-6,6,6,0,0,0-6,6,6,6,0,0,0,.84,3.07l-0.73.73h0Z" transform="translate(-2 28.94)"/></svg>