<svg id="Layer_1" data-name="Layer 1" xmlns="http://www.w3.org/2000/svg" viewBox="0 0 28 28"><defs><style>.cls-1{fill:#5ba4e5;}</style></defs><title>thumb-up</title><path class="cls-1" d="M11,13H5a2,2,0,0,0-2,2V28a2,2,0,0,0,2,2H24.49a2.5,2.5,0,0,0,2-4,2.5,2.5,0,0,0,1.87-4.16,2.5,2.5,0,0,0,1-4A2.5,2.5,0,0,0,28.49,13h-6C23.55,8,23,2,19,2s-1.93,4.79-3.5,7.76A6.08,6.08,0,0,1,11,13h0ZM5,14h5V29H5a1,1,0,0,1-1-1V15a1,1,0,0,1,1-1H5ZM7,27a1,1,0,1,0-1-1,1,1,0,0,0,1,1H7ZM21.3,14h7.21a1.5,1.5,0,0,1,0,3H25v1h2.51a1.5,1.5,0,0,1,0,3H24v1h2.51a1.5,1.5,0,0,1,0,3H23v1h1.5a1.5,1.5,0,1,1,0,3H11V14a5.25,5.25,0,0,0,2.81-1,7.1,7.1,0,0,0,2.56-2.7C17.94,7.33,16.13,3,19,3s3.45,4.85,2.5,10l-0.2,1h0Z" transform="translate(-3 -2)"/></svg>