<?xml version="1.0" encoding="UTF-8" standalone="no"?>
<svg width="36px" height="36px" viewBox="0 0 36 36" version="1.1" xmlns="http://www.w3.org/2000/svg" xmlns:xlink="http://www.w3.org/1999/xlink" xmlns:sketch="http://www.bohemiancoding.com/sketch/ns">
    <!-- Generator: Sketch 3.5.1 (25234) - http://www.bohemiancoding.com/sketch -->
    <title>Group</title>
    <desc>Created with Sketch.</desc>
    <defs></defs>
    <g id="Page-1" stroke="none" stroke-width="1" fill="none" fill-rule="evenodd" sketch:type="MSPage">
        <g id="Download-2.0" sketch:type="MSArtboardGroup" transform="translate(-362.000000, -1183.000000)" fill="#5BA4E5">
            <g id="Rectangle-21-+-Group-+-Rectangle-22-+-NEW" sketch:type="MSLayerGroup" transform="translate(-90.000000, 941.000000)">
                <g id="Group" transform="translate(90.000000, 59.000000)" sketch:type="MSShapeGroup">
                    <g transform="translate(362.000000, 183.000000)">
                        <path d="M20.2485,10.5 C17.3535,10.5 14.9985,12.855 14.9985,15.75 C14.9985,18.645 17.3535,21 20.2485,21 C23.1435,21 25.4985,18.645 25.4985,15.75 C25.4985,12.855 23.1435,10.5 20.2485,10.5 M20.2485,22.5 C16.527,22.5 13.4985,19.4715 13.4985,15.75 C13.4985,12.0285 16.527,9 20.2485,9 C23.97,9 26.9985,12.0285 26.9985,15.75 C26.9985,19.4715 23.97,22.5 20.2485,22.5" id="Fill-8604"></path>
                        <path d="M3,6.75075 C2.172,6.75075 1.5,7.42425 1.5,8.25075 C1.5,9.07725 2.172,9.75075 3,9.75075 C3.828,9.75075 4.5,9.07725 4.5,8.25075 C4.5,7.42425 3.828,6.75075 3,6.75075 M3,11.25075 C1.3455,11.25075 0,9.90525 0,8.25075 C0,6.59625 1.3455,5.25075 3,5.25075 C4.6545,5.25075 6,6.59625 6,8.25075 C6,9.90525 4.6545,11.25075 3,11.25075" id="Fill-8605"></path>
                        <path d="M33,1.5 C32.172,1.5 31.5,2.1735 31.5,3 C31.5,3.8265 32.172,4.5 33,4.5 C33.828,4.5 34.5,3.8265 34.5,3 C34.5,2.1735 33.828,1.5 33,1.5 M33,6 C31.3455,6 30,4.6545 30,3 C30,1.3455 31.3455,0 33,0 C34.6545,0 36,1.3455 36,3 C36,4.6545 34.6545,6 33,6" id="Fill-8606"></path>
                        <path d="M3,31.5 C2.172,31.5 1.5,32.1735 1.5,33 C1.5,33.8265 2.172,34.5 3,34.5 C3.828,34.5 4.5,33.8265 4.5,33 C4.5,32.1735 3.828,31.5 3,31.5 M3,36 C1.3455,36 0,34.6545 0,33 C0,31.3455 1.3455,30 3,30 C4.6545,30 6,31.3455 6,33 C6,34.6545 4.6545,36 3,36" id="Fill-8607"></path>
                        <path d="M20.2485,31.5 C19.4205,31.5 18.7485,32.1735 18.7485,33 C18.7485,33.8265 19.4205,34.5 20.2485,34.5 C21.0765,34.5 21.7485,33.8265 21.7485,33 C21.7485,32.1735 21.0765,31.5 20.2485,31.5 M20.2485,36 C18.594,36 17.2485,34.6545 17.2485,33 C17.2485,31.3455 18.594,30 20.2485,30 C21.903,30 23.2485,31.3455 23.2485,33 C23.2485,34.6545 21.903,36 20.2485,36" id="Fill-8608"></path>
                        <path d="M5.11965,31.94085 L4.05915,30.87885 L15.48915,19.47435 L16.54965,20.53635 L5.11965,31.94085 Z" id="Fill-8609"></path>
                        <path d="M25.02975,12.0447 L23.96925,10.9857 L30.87675,4.0617 L31.93725,5.1207 L25.02975,12.0447 Z" id="Fill-8610"></path>
                        <path d="M14.4375,14.0757 L4.728,9.9162 L5.3205,8.5377 L15.03,12.6972 L14.4375,14.0757 Z" id="Fill-8611"></path>
                        <path d="M30.55515,21.7368 L25.12965,19.4943 L25.70415,18.1083 L31.12965,20.3508 L30.55515,21.7368 Z" id="Fill-8612"></path>
                        <path d="M20.9985,30.75 L19.4985,30.75 L19.4985,21.75 L20.9985,21.75 L20.9985,30.75 Z" id="Fill-8613"></path>
                        <path d="M33,20.25 C32.172,20.25 31.5,20.9235 31.5,21.75 C31.5,22.5765 32.172,23.25 33,23.25 C33.828,23.25 34.5,22.5765 34.5,21.75 C34.5,20.9235 33.828,20.25 33,20.25 M33,24.75 C31.3455,24.75 30,23.4045 30,21.75 C30,20.0955 31.3455,18.75 33,18.75 C34.6545,18.75 36,20.0955 36,21.75 C36,23.4045 34.6545,24.75 33,24.75" id="Fill-8614"></path>
                    </g>
                </g>
            </g>
        </g>
    </g>
</svg>