<svg id="Layer_1" data-name="Layer 1" xmlns="http://www.w3.org/2000/svg" viewBox="0 0 29 23"><defs><style>.cls-1{fill:#f5233a;}</style></defs><title>website</title><g id="Page-1"><g id="Download-2.0"><g id="Group"><path id="Fill-5105" class="cls-1" d="M-13.9-10.29a1.82,1.82,0,0,0-1.81,1.82V8.47a1.82,1.82,0,0,0,1.81,1.82h23a1.82,1.82,0,0,0,1.81-1.82V-8.47a1.82,1.82,0,0,0-1.81-1.82h-23Zm23,21.79h-23a3,3,0,0,1-3-3V-8.47a3,3,0,0,1,3-3h23a3,3,0,0,1,3,3V8.47a3,3,0,0,1-3,3h0Z" transform="translate(16.92 11.5)"/><path id="Fill-5106" class="cls-1" d="M11.48-4.24H-16.31a0.6,0.6,0,0,1-.6-0.61,0.6,0.6,0,0,1,.6-0.61H11.48a0.6,0.6,0,0,1,.6.61,0.6,0.6,0,0,1-.6.61" transform="translate(16.92 11.5)"/><path id="Fill-5107" class="cls-1" d="M-12.08-6.66a1.21,1.21,0,0,1-1.21-1.21,1.21,1.21,0,0,1,1.21-1.21,1.21,1.21,0,0,1,1.21,1.21,1.21,1.21,0,0,1-1.21,1.21" transform="translate(16.92 11.5)"/><path id="Fill-5108" class="cls-1" d="M-8.46-6.66A1.21,1.21,0,0,1-9.67-7.87,1.21,1.21,0,0,1-8.46-9.08,1.21,1.21,0,0,1-7.25-7.87,1.21,1.21,0,0,1-8.46-6.66" transform="translate(16.92 11.5)"/><path id="Fill-5109" class="cls-1" d="M-4.83-6.66A1.21,1.21,0,0,1-6-7.87,1.21,1.21,0,0,1-4.83-9.08,1.21,1.21,0,0,1-3.62-7.87,1.21,1.21,0,0,1-4.83-6.66" transform="translate(16.92 11.5)"/><path id="Fill-5110" class="cls-1" d="M3,7.87H3a0.6,0.6,0,0,1-.5-0.36L-0.72.05-4.93,6.39a0.61,0.61,0,0,1-.57.27A0.6,0.6,0,0,1-6,6.28l-2-5L-9.77,4a0.6,0.6,0,0,1-.5.27h-6a0.6,0.6,0,0,1-.6-0.61A0.6,0.6,0,0,1-16.31,3h5.72L-8.36-.34A0.59,0.59,0,0,1-7.79-.6a0.6,0.6,0,0,1,.5.38l2,5,4.2-6.31A0.59,0.59,0,0,1-.55-1.81a0.6,0.6,0,0,1,.5.36L3.14,6l1.8-2.7A0.6,0.6,0,0,1,5.44,3h6a0.61,0.61,0,0,1,0,1.21H5.76L3.52,7.6a0.6,0.6,0,0,1-.5.27" transform="translate(16.92 11.5)"/></g></g></g></svg>