<?xml version="1.0" encoding="UTF-8" standalone="no"?>
<svg width="36px" height="36px" viewBox="0 0 36 36" version="1.1" xmlns="http://www.w3.org/2000/svg" xmlns:xlink="http://www.w3.org/1999/xlink" xmlns:sketch="http://www.bohemiancoding.com/sketch/ns">
    <!-- Generator: Sketch 3.5.1 (25234) - http://www.bohemiancoding.com/sketch -->
    <title>Fill 3877 + Fill 3878 + Fill 3879</title>
    <desc>Created with Sketch.</desc>
    <defs></defs>
    <g id="Page-1" stroke="none" stroke-width="1" fill="none" fill-rule="evenodd" sketch:type="MSPage">
        <g id="Download-2.0" sketch:type="MSArtboardGroup" transform="translate(-842.000000, -1183.000000)" fill="#231F1F">
            <g id="Rectangle-21-+-Group-+-Rectangle-22-+-NEW" sketch:type="MSLayerGroup" transform="translate(-90.000000, 941.000000)">
                <g id="Group" transform="translate(90.000000, 59.000000)" sketch:type="MSShapeGroup">
                    <g id="Fill-3877-+-Fill-3878-+-Fill-3879" transform="translate(842.000000, 183.000000)">
                        <path d="M6.07545,34.3125 C7.70595,34.599 9.42045,34.059 10.62645,32.853 C12.12045,31.359 12.53895,29.0985 11.68995,27.0945 C11.57145,26.8125 11.63445,26.4855 11.85045,26.271 L26.26995,11.85 C26.48595,11.634 26.81295,11.5725 27.09345,11.6895 C29.02995,12.513 31.36095,12.0645 32.85345,10.5705 C34.08045,9.342 34.59645,7.6965 34.31295,6.0735 L32.33295,8.1315 C32.19195,8.2785 31.99695,8.361 31.79295,8.361 L28.61145,8.361 C28.19745,8.361 27.86145,8.0265 27.86145,7.611 L27.86145,4.2075 C27.86145,4.008 27.94095,3.8175 28.08045,3.6765 L30.06645,1.6935 C28.40295,1.395 26.64045,1.935 25.42845,3.147 C23.91045,4.665 23.47095,6.9255 24.30795,8.9085 C24.42645,9.189 24.36345,9.5145 24.14745,9.729 L9.72945,24.15 C9.51195,24.366 9.18795,24.4305 8.90745,24.309 C6.97245,23.4915 4.63845,23.937 3.14595,25.4295 C1.90995,26.667 1.38795,28.398 1.69095,30.066 L3.67545,28.0815 C3.81645,27.9405 4.00695,27.861 4.20645,27.861 L7.61145,27.861 C8.02545,27.861 8.36145,28.197 8.36145,28.611 L8.36145,31.7925 C8.36145,31.9965 8.27895,32.1915 8.13195,32.334 L6.07545,34.3125 Z M6.95895,35.889 L6.95895,35.889 C6.05745,35.889 5.17395,35.709 4.33695,35.355 C4.10445,35.2575 3.93795,35.0475 3.89145,34.8 C3.84645,34.5525 3.92745,34.299 4.10895,34.1235 L6.86145,31.473 L6.86145,29.361 L4.51695,29.361 L1.86645,32.013 C1.68945,32.19 1.43745,32.265 1.19295,32.2185 C0.94695,32.1705 0.74295,32.004 0.64545,31.776 C-0.43155,29.2275 0.13395,26.322 2.08545,24.369 C3.88245,22.575 6.62895,21.9435 9.01095,22.746 L22.74345,9.012 C21.92595,6.588 22.53795,3.9165 24.36795,2.0865 C26.28645,0.168 29.28495,-0.405 31.77645,0.645 C32.00595,0.7425 32.17245,0.948 32.22045,1.1925 C32.26695,1.437 32.19045,1.6905 32.01345,1.866 L29.36145,4.518 L29.36145,6.861 L31.47345,6.861 L34.12245,4.1085 C34.29645,3.927 34.54845,3.846 34.79895,3.8925 C35.04645,3.9375 35.25495,4.104 35.35245,4.3365 C36.42645,6.8745 35.87595,9.669 33.91395,11.631 C32.11695,13.428 29.37045,14.058 26.98845,13.254 L13.25445,26.988 C14.08695,29.4345 13.49745,32.1045 11.68695,33.9135 C10.41345,35.187 8.73345,35.889 6.95895,35.889 L6.95895,35.889 Z" id="Fill-3877"></path>
                        <path d="M14.28885,18.54495 L9.01185,13.28145 C6.57585,14.11245 3.90585,13.50795 2.08635,11.68695 C0.14385,9.74445 -0.42165,6.85845 0.64485,4.33545 C0.74385,4.10445 0.95085,3.93795 1.19985,3.89145 C1.44585,3.84345 1.70085,3.92745 1.87635,4.10895 L4.52535,6.86145 L6.86085,6.86145 L6.86085,4.52595 L4.10985,1.87695 C3.92835,1.69995 3.84585,1.44795 3.89235,1.19895 C3.93885,0.95145 4.10535,0.74295 4.33785,0.64395 C6.87435,-0.42705 9.66885,0.12345 11.63085,2.08545 C13.46235,3.91545 14.07285,6.58545 13.25385,9.01245 L18.52935,14.28645 L17.46885,15.34695 L11.84985,9.72945 C11.63385,9.51345 11.57085,9.18795 11.69085,8.90595 C12.52935,6.92595 12.08985,4.66395 10.57035,3.14595 C9.34335,1.91895 7.69485,1.40295 6.07335,1.68645 L8.13135,3.66645 C8.27835,3.80895 8.36085,4.00395 8.36085,4.20645 L8.36085,7.61145 C8.36085,8.02545 8.02635,8.36145 7.61085,8.36145 L4.20585,8.36145 C4.00335,8.36145 3.80685,8.27745 3.66585,8.13195 L1.68735,6.07545 C1.40835,7.71345 1.92885,9.40695 3.14685,10.62645 C4.65285,12.13545 6.91335,12.56445 8.90685,11.71845 C9.18885,11.59695 9.51285,11.66145 9.72885,11.87745 L15.34785,17.48145 L14.28885,18.54495 Z" id="Fill-3878"></path>
                        <path d="M29.12985,35.89455 C27.37785,35.89455 25.66335,35.21055 24.36885,33.91605 C22.53735,32.08455 21.92685,29.41455 22.74585,26.99055 L17.46885,21.71055 L18.52935,20.65005 L24.14985,26.27205 C24.36585,26.48805 24.42885,26.81355 24.31035,27.09555 C23.47185,29.07405 23.90985,31.33605 25.42935,32.85555 C26.66685,34.09305 28.39485,34.60905 30.06885,34.30905 L28.08135,32.32455 C27.94035,32.18355 27.86085,31.99305 27.86085,31.79505 L27.86085,28.61205 C27.86085,28.19655 28.19685,27.86205 28.61085,27.86205 L31.79235,27.86205 C31.99185,27.86205 32.18235,27.94005 32.32335,28.08105 L34.30935,30.06705 C34.61085,28.39755 34.09035,26.66805 32.85285,25.42905 C31.33485,23.91255 29.07135,23.47155 27.09285,24.31005 C26.81235,24.42705 26.48685,24.36555 26.27085,24.14955 L20.65185,18.53055 L21.71235,17.47005 L26.98785,22.74555 C29.41335,21.92805 32.08335,22.53855 33.91335,24.36855 C35.86635,26.32155 36.43185,29.22855 35.35485,31.77555 C35.25735,32.00355 35.05185,32.17155 34.80735,32.21955 C34.56135,32.26605 34.30935,32.18955 34.13385,32.01255 L31.48185,29.36205 L29.36085,29.36205 L29.36085,31.48455 L32.01435,34.13355 C32.19135,34.30905 32.26785,34.56255 32.22135,34.80705 C32.17335,35.05305 32.00685,35.25705 31.77735,35.35605 C30.91785,35.71755 30.01935,35.89455 29.12985,35.89455" id="Fill-3879"></path>
                    </g>
                </g>
            </g>
        </g>
    </g>
</svg>